<svg width="48" height="48" viewBox="0 0 48 48" fill="none" xmlns="http://www.w3.org/2000/svg">
<path d="M9.74604 6H38.254C38.5696 5.99996 38.8807 6.07459 39.1619 6.2178C39.4431 6.36102 39.6865 6.56874 39.872 6.824L47.518 17.336C47.654 17.523 47.7209 17.7514 47.7074 17.9822C47.6939 18.2131 47.6008 18.4321 47.444 18.602L24.734 43.204C24.5541 43.3985 24.3044 43.5136 24.0396 43.5241C23.7749 43.5346 23.5168 43.4396 23.322 43.26C23.308 43.248 15.722 35.03 0.556036 18.602C0.399244 18.4321 0.306182 18.2131 0.29269 17.9822C0.279198 17.7514 0.346109 17.523 0.482036 17.336L8.12804 6.824C8.3136 6.56874 8.55693 6.36102 8.83814 6.2178C9.11935 6.07459 9.43046 5.99996 9.74604 6ZM10.766 10L5.16604 17.7L24 38.1L42.834 17.7L37.234 10H10.766Z" fill="#5B3102"/>
</svg>
