<svg width="41" height="41" viewBox="0 0 41 41" fill="none" xmlns="http://www.w3.org/2000/svg">
<path fill-rule="evenodd" clip-rule="evenodd" d="M9.97195 6.98634C6.23174 10.8291 2.73525 14.7112 2.20125 15.6137C1.66771 16.5162 0.898151 18.5699 0.491666 20.1779C-1.43224 27.7859 2.42417 35.8654 9.71422 39.5019C12.4746 40.8786 13.0746 41.0018 17.0264 41C23.4447 40.9972 24.9753 40.1089 33.8786 31.2214C37.7951 27.3113 41 23.8974 41 23.6345C41 23.0334 34.6201 16.4923 34.0337 16.4923C33.7959 16.4923 30.6312 19.4596 27.0018 23.0861C21.8816 28.2024 19.988 29.8058 18.5515 30.2419C16.1149 30.9813 13.94 30.2717 12.0849 28.1304C10.983 26.8592 10.7058 26.1234 10.7058 24.471C10.7058 23.333 10.997 21.8459 11.3528 21.1652C11.7087 20.4849 14.7607 17.1479 18.1351 13.75C21.5095 10.3522 24.2704 7.25388 24.2704 6.86586C24.2704 5.95603 18.3607 0 17.4578 0C17.0807 0 13.7117 3.14408 9.97195 6.98634ZM8.58926 12.0293C6.5695 14.106 4.45795 16.7329 3.89637 17.8667C2.4947 20.6988 2.19266 25.6511 3.229 28.8117C5.86911 36.865 15.0523 40.9377 22.6381 37.4188C25.1783 36.2406 31.957 30.2236 31.957 29.147C31.957 28.8854 31.2104 27.8963 30.2976 26.9494L28.6386 25.2278L25.2782 28.4617C21.5335 32.0662 19.8225 32.9847 16.8537 32.9847C13.1556 32.9847 10.4408 31.198 8.85016 27.7163C6.97463 23.612 7.93952 20.6035 12.7314 15.6146L16.1181 12.0884L14.1896 10.1707L12.2612 8.2535L8.58926 12.0293Z" fill="#5B3102"/>
</svg>
