<svg width="40" height="47" viewBox="0 0 40 47" fill="none" xmlns="http://www.w3.org/2000/svg">
<path d="M8.37679 35.3432C7.27288 35.1877 6.20287 35.1801 5.22329 34.8742C2.18281 33.9275 0.396956 31.76 0.0541021 28.5769C-0.293775 25.3505 1.04499 22.8402 3.81043 21.2028C5.98058 19.9183 8.1005 18.5804 9.95291 16.8398C12.2034 14.7258 13.9654 12.2206 15.6106 9.62111C15.9748 9.04642 16.3152 8.45644 16.6832 7.88431C17.3676 6.82158 17.8185 5.67475 18.091 4.43108C18.5469 2.35278 19.6659 0.809656 21.7707 0.195466C23.1082 -0.194455 24.4106 0.0349101 25.6702 0.566273C27.8755 1.4952 29.6538 3.02431 31.2274 4.79424C35.3417 9.4236 38.1863 14.7474 39.5476 20.846C40.0223 22.9689 40.207 25.1211 39.687 27.2695C39.2148 29.2178 38.2001 30.7278 36.2183 31.3662C35.1207 31.7192 33.9879 31.6912 32.9405 31.2694C31.3706 30.6374 29.7543 30.5176 28.1028 30.5099C25.2959 30.4972 22.4941 30.5405 19.7211 31.0477C19.5704 31.0757 19.421 31.1165 19.2301 31.1598C19.5189 32.615 19.8015 34.0422 20.0841 35.4693C20.393 37.0252 20.712 38.5798 21.0071 40.1382C21.5924 43.2372 19.5754 46.2826 16.5513 46.8866C13.4392 47.5085 10.4389 45.5117 9.7997 42.3821C9.32623 40.0656 8.86658 37.7477 8.3994 35.4298C8.38433 35.3546 8.36423 35.2807 8.3793 35.3432H8.37679ZM18.5456 12.0498C18.3522 12.3429 18.2116 12.5468 18.0797 12.7558C14.9852 17.6489 11.0242 21.608 5.93662 24.3566C5.5674 24.5566 5.2145 24.8128 4.90932 25.102C3.89834 26.0602 3.54292 27.2529 3.85689 28.6126C4.17212 29.9786 5.02611 30.8629 6.35483 31.2617C7.4914 31.6032 8.54382 31.356 9.56108 30.7941C11.779 29.5683 14.0885 28.5616 16.5299 27.8799C19.5428 27.0389 22.6222 26.7573 25.7305 26.7088C25.9415 26.705 26.1525 26.7088 26.4727 26.7088C22.7239 22.3904 20.1192 17.5763 18.5456 12.0498ZM21.5547 6.9936C21.6778 7.89195 21.7607 8.97252 21.9804 10.0238C22.7829 13.8644 24.4269 17.3418 26.5481 20.5975C28.1845 23.1091 30.0997 25.3658 32.6127 27.0223C33.1527 27.3778 33.7806 27.6199 34.396 27.8289C34.9072 28.0022 35.3618 27.7818 35.6368 27.3039C35.8001 27.0198 35.9408 26.7101 36.0236 26.3941C36.3326 25.2027 36.2384 23.9972 36.0714 22.7982C35.6896 20.0674 34.7703 17.5087 33.5684 15.0533C31.8705 11.5835 29.7769 8.40038 26.8595 5.84423C25.9201 5.02106 24.9255 4.27307 23.7035 3.92775C22.6649 3.63467 21.9691 4.04371 21.7531 5.11153C21.6413 5.66711 21.63 6.24434 21.5547 6.99615V6.9936ZM15.5767 32.118C14.3899 32.6749 13.2433 33.2063 12.1067 33.758C12.0251 33.7975 11.9573 33.9976 11.9786 34.1033C12.4785 36.6378 12.9708 39.1736 13.5121 41.6991C13.7369 42.7491 14.7252 43.3404 15.7714 43.1569C16.7346 42.9887 17.4178 42.0776 17.3287 41.0391C17.2948 40.6466 17.2006 40.258 17.124 39.8693C16.6166 37.3208 16.108 34.7736 15.5767 32.118Z" fill="#5B3102"/>
</svg>
